<?xml version="1.0" standalone="no"?>
<!DOCTYPE svg PUBLIC "-//W3C//DTD SVG 20010904//EN"
 "http://www.w3.org/TR/2001/REC-SVG-20010904/DTD/svg10.dtd">
<svg version="1.0" xmlns="http://www.w3.org/2000/svg"
 width="700.000000pt" height="700.000000pt" viewBox="0 0 700.000000 700.000000"
 preserveAspectRatio="xMidYMid meet">
<metadata>
Created by potrace 1.11, written by Peter Selinger 2001-2013
</metadata>
<g transform="translate(0.000000,700.000000) scale(0.100000,-0.100000)"
fill="#000000" stroke="none">
<path d="M3458 6954 c-2 -1 -23 -5 -47 -9 -107 -16 -229 -103 -295 -209 -47
-76 -59 -134 -61 -301 -2 -88 -4 -165 -4 -170 -1 -6 -18 -17 -38 -24 -55 -20
-113 -62 -170 -125 -47 -51 -59 -71 -94 -153 -11 -25 -20 -33 -41 -34 -16 -1
-31 -2 -35 -3 -5 -1 -42 -6 -83 -10 -41 -5 -84 -10 -95 -12 -11 -1 -47 -6 -80
-9 -33 -4 -71 -8 -85 -10 -14 -2 -52 -6 -85 -10 -33 -3 -76 -7 -95 -10 -19 -2
-60 -7 -90 -10 -30 -4 -66 -8 -80 -10 -14 -2 -52 -6 -85 -10 -73 -8 -128 -14
-175 -20 -19 -2 -60 -7 -90 -10 -30 -3 -71 -8 -90 -10 -19 -3 -55 -7 -80 -10
-63 -7 -140 -16 -170 -20 -14 -2 -54 -6 -90 -10 -36 -4 -76 -8 -90 -10 -14 -2
-50 -6 -80 -10 -30 -4 -66 -8 -80 -10 -14 -2 -54 -6 -90 -10 -198 -21 -360
-92 -490 -217 -197 -189 -279 -425 -248 -713 4 -33 7 -63 7 -67 1 -4 9 -5 18
-4 34 6 108 15 171 21 35 4 71 8 80 10 9 1 46 6 82 9 36 4 81 9 100 11 49 6
105 13 170 20 30 4 66 8 80 10 14 2 53 7 88 10 l62 7 -6 -39 c-3 -21 -25 -148
-49 -283 -24 -135 -47 -261 -50 -280 -6 -36 -18 -101 -20 -110 -1 -3 -5 -28
-10 -56 -4 -28 -10 -55 -14 -60 -3 -5 -40 -25 -81 -44 -120 -56 -246 -146
-344 -246 -111 -112 -106 -105 -176 -217 -131 -211 -186 -411 -183 -672 2
-243 77 -474 219 -677 l54 -78 -161 0 c-149 0 -161 -1 -154 -18 3 -9 70 -208
148 -442 77 -234 142 -427 144 -429 7 -10 1927 -6 1939 4 7 6 76 199 153 430
76 231 142 428 146 438 7 16 -5 17 -154 17 l-161 0 54 77 c147 212 220 443
220 698 0 90 -9 210 -17 222 -3 5 -8 28 -12 52 -9 64 -61 205 -111 301 -117
227 -336 436 -566 540 -42 19 -79 41 -82 48 -3 7 -10 41 -16 75 -13 81 -18
111 -30 172 -5 28 -12 66 -15 85 -5 32 -50 283 -61 340 -2 14 -7 41 -10 60 -3
19 -7 46 -10 60 -19 95 -18 100 10 101 14 1 29 2 34 3 4 1 43 6 87 10 44 5 89
9 100 11 11 2 47 6 80 10 32 4 66 8 75 10 8 1 47 6 85 10 39 3 84 8 100 10 17
2 50 6 75 9 25 3 83 10 130 15 47 6 110 13 140 16 30 3 66 8 80 10 40 6 110
14 185 20 39 4 77 8 85 10 8 2 42 6 75 10 l60 6 45 -76 44 -76 1 -1742 c0
-958 -3 -1766 -8 -1795 -10 -72 -40 -132 -90 -182 -55 -56 -117 -83 -259 -115
-145 -32 -216 -60 -304 -117 -199 -129 -323 -338 -340 -573 -3 -44 -7 -84 -8
-90 -2 -7 -271 -10 -780 -10 l-776 0 0 -111 0 -111 3010 0 3010 0 0 111 0 111
-777 0 -778 0 -7 75 c-18 216 -85 368 -223 505 -89 90 -245 174 -367 199 -196
41 -253 63 -313 124 -46 47 -81 114 -92 178 -4 27 -8 837 -7 1799 l0 1750 36
55 c19 30 47 89 63 130 33 89 35 92 72 95 30 2 120 12 183 20 83 11 289 35
340 40 30 3 71 7 90 10 19 2 60 7 90 11 30 3 66 8 80 9 14 2 54 7 90 10 36 4
73 9 82 11 9 1 48 6 85 9 37 4 77 8 89 10 32 5 157 19 174 19 16 1 17 -16 7
-69 -22 -106 -130 -601 -133 -606 -2 -4 -29 -17 -61 -30 -229 -93 -462 -310
-586 -548 -99 -190 -140 -355 -139 -571 0 -268 68 -488 217 -701 l55 -79 -72
-1 c-40 0 -112 0 -160 0 l-86 0 8 -27 c16 -54 284 -857 287 -862 2 -2 440 -5
973 -5 l969 0 15 40 c49 128 282 846 277 850 -4 2 -54 4 -112 4 -57 0 -126 0
-153 1 l-48 0 25 33 c165 217 249 463 250 737 1 138 -6 200 -33 305 -94 364
-341 661 -677 816 -45 21 -83 41 -83 44 0 3 -14 69 -30 148 -17 78 -32 151
-34 162 -14 71 -89 411 -93 418 -2 4 -1 7 4 8 4 0 17 2 28 4 11 2 45 7 75 10
30 3 71 7 90 10 19 2 60 7 90 10 54 5 82 9 166 20 23 3 64 8 90 10 27 3 65 7
84 10 19 2 62 8 95 11 33 3 67 8 75 9 8 2 50 6 93 10 l78 7 -5 32 c-3 17 -8
56 -11 86 -40 361 -335 657 -695 697 -97 10 -154 7 -375 -21 -84 -11 -118 -15
-180 -21 -33 -4 -71 -8 -85 -10 -14 -1 -54 -6 -90 -9 -36 -4 -72 -9 -80 -11
-8 -2 -46 -6 -85 -10 -38 -3 -101 -10 -140 -15 -38 -6 -97 -12 -130 -15 -33
-2 -71 -7 -85 -9 -14 -3 -50 -8 -80 -11 -30 -3 -71 -7 -90 -9 -19 -3 -62 -7
-95 -11 -33 -4 -73 -8 -90 -10 -16 -2 -91 -11 -165 -20 -74 -8 -153 -18 -175
-20 -151 -19 -132 -22 -183 28 -51 49 -111 88 -156 103 l-29 10 -2 169 c-2
141 -6 180 -22 225 -56 157 -182 266 -340 296 -32 6 -122 12 -125 8z m2327
-1606 c37 -170 93 -427 110 -513 30 -141 32 -127 -22 -119 -70 10 -198 11
-268 3 -33 -4 -61 -6 -63 -5 -2 3 29 153 97 466 l38 175 44 6 c24 3 47 7 51 7
4 1 10 -8 13 -20z m-4442 -595 c9 -54 25 -150 37 -213 11 -63 23 -130 26 -149
3 -18 8 -43 10 -55 2 -11 7 -36 10 -54 3 -19 14 -81 23 -138 l18 -104 -51 7
c-63 9 -261 8 -310 -1 -33 -6 -35 -5 -30 16 2 13 13 75 24 138 11 63 22 125
24 136 2 12 7 37 10 55 3 19 8 45 10 59 3 14 15 81 26 149 12 68 23 128 24
135 2 6 6 32 10 58 9 50 9 50 87 56 l35 3 17 -98z"/>
<path d="M46 260 c-2 -3 -3 -52 -2 -110 l1 -105 111 -2 110 -2 0 109 c0 61 -2
111 -5 111 -21 4 -213 4 -215 -1z"/>
<path d="M6741 256 c-5 -6 -8 -56 -7 -111 l1 -100 110 0 110 0 2 108 c1 74 -2
107 -10 108 -64 7 -199 3 -206 -5z"/>
</g>
</svg>
